<mxfile host="app.diagrams.net" modified="2024-02-24T05:47:03.337Z" agent="Mozilla/5.0 (Macintosh; Intel Mac OS X 10_15_7) AppleWebKit/605.1.15 (KHTML, like Gecko) Version/17.2.1 Safari/605.1.15" etag="kNa6nKNxueBklSuo6gUK" version="23.1.6" type="github">
  <diagram name="ページ1" id="JQW5KVyrETqcMesG1Ox8">
    <mxGraphModel dx="3066" dy="1502" grid="0" gridSize="10" guides="1" tooltips="1" connect="1" arrows="1" fold="1" page="0" pageScale="1" pageWidth="827" pageHeight="1169" math="0" shadow="0">
      <root>
        <mxCell id="0" />
        <mxCell id="1" parent="0" />
        <mxCell id="kMEmVYbH7B9asUcp1sha-22" value="" style="ellipse;whiteSpace=wrap;html=1;fillColor=#ffe6cc;strokeColor=#d79b00;" vertex="1" parent="1">
          <mxGeometry x="140" y="-300" width="470" height="390" as="geometry" />
        </mxCell>
        <mxCell id="kMEmVYbH7B9asUcp1sha-20" value="" style="ellipse;whiteSpace=wrap;html=1;fillColor=#d5e8d4;strokeColor=#82b366;" vertex="1" parent="1">
          <mxGeometry x="-230" y="500" width="630" height="500" as="geometry" />
        </mxCell>
        <mxCell id="kMEmVYbH7B9asUcp1sha-11" value="" style="ellipse;whiteSpace=wrap;html=1;fillColor=#dae8fc;strokeColor=#6c8ebf;" vertex="1" parent="1">
          <mxGeometry x="140" y="120" width="500" height="410" as="geometry" />
        </mxCell>
        <mxCell id="kMEmVYbH7B9asUcp1sha-1" value="B1. Command Handle" style="ellipse;whiteSpace=wrap;html=1;fillColor=#dae8fc;strokeColor=#6c8ebf;" vertex="1" parent="1">
          <mxGeometry x="330" y="170" width="120" height="80" as="geometry" />
        </mxCell>
        <mxCell id="kMEmVYbH7B9asUcp1sha-2" value="C4. Output Stimulus" style="ellipse;whiteSpace=wrap;html=1;fillColor=#d5e8d4;strokeColor=#82b366;" vertex="1" parent="1">
          <mxGeometry x="10" y="820" width="120" height="80" as="geometry" />
        </mxCell>
        <mxCell id="kMEmVYbH7B9asUcp1sha-5" value="State Table" style="swimlane;fontStyle=0;childLayout=stackLayout;horizontal=1;startSize=30;horizontalStack=0;resizeParent=1;resizeParentMax=0;resizeLast=0;collapsible=1;marginBottom=0;whiteSpace=wrap;html=1;" vertex="1" parent="1">
          <mxGeometry x="-220" y="-200" width="230" height="450" as="geometry" />
        </mxCell>
        <mxCell id="kMEmVYbH7B9asUcp1sha-6" value="A1 State and Peripheral Reset" style="text;strokeColor=#d79b00;fillColor=#ffe6cc;align=left;verticalAlign=middle;spacingLeft=4;spacingRight=4;overflow=hidden;points=[[0,0.5],[1,0.5]];portConstraint=eastwest;rotatable=0;whiteSpace=wrap;html=1;" vertex="1" parent="kMEmVYbH7B9asUcp1sha-5">
          <mxGeometry y="30" width="230" height="30" as="geometry" />
        </mxCell>
        <mxCell id="kMEmVYbH7B9asUcp1sha-34" value="A2 Output Stability Verification" style="text;strokeColor=#d79b00;fillColor=#ffe6cc;align=left;verticalAlign=middle;spacingLeft=4;spacingRight=4;overflow=hidden;points=[[0,0.5],[1,0.5]];portConstraint=eastwest;rotatable=0;whiteSpace=wrap;html=1;" vertex="1" parent="kMEmVYbH7B9asUcp1sha-5">
          <mxGeometry y="60" width="230" height="30" as="geometry" />
        </mxCell>
        <mxCell id="kMEmVYbH7B9asUcp1sha-25" value="A3 System State Load Verification" style="text;strokeColor=#d79b00;fillColor=#ffe6cc;align=left;verticalAlign=middle;spacingLeft=4;spacingRight=4;overflow=hidden;points=[[0,0.5],[1,0.5]];portConstraint=eastwest;rotatable=0;whiteSpace=wrap;html=1;" vertex="1" parent="kMEmVYbH7B9asUcp1sha-5">
          <mxGeometry y="90" width="230" height="30" as="geometry" />
        </mxCell>
        <mxCell id="kMEmVYbH7B9asUcp1sha-9" value="B1 Command Handle" style="text;strokeColor=#6c8ebf;fillColor=#dae8fc;align=left;verticalAlign=middle;spacingLeft=4;spacingRight=4;overflow=hidden;points=[[0,0.5],[1,0.5]];portConstraint=eastwest;rotatable=0;whiteSpace=wrap;html=1;" vertex="1" parent="kMEmVYbH7B9asUcp1sha-5">
          <mxGeometry y="120" width="230" height="30" as="geometry" />
        </mxCell>
        <mxCell id="kMEmVYbH7B9asUcp1sha-44" value="B2. Poll Environment" style="text;strokeColor=#6c8ebf;fillColor=#dae8fc;align=left;verticalAlign=middle;spacingLeft=4;spacingRight=4;overflow=hidden;points=[[0,0.5],[1,0.5]];portConstraint=eastwest;rotatable=0;whiteSpace=wrap;html=1;" vertex="1" parent="kMEmVYbH7B9asUcp1sha-5">
          <mxGeometry y="150" width="230" height="30" as="geometry" />
        </mxCell>
        <mxCell id="kMEmVYbH7B9asUcp1sha-45" value="B3 Update Status Registers" style="text;strokeColor=#6c8ebf;fillColor=#dae8fc;align=left;verticalAlign=middle;spacingLeft=4;spacingRight=4;overflow=hidden;points=[[0,0.5],[1,0.5]];portConstraint=eastwest;rotatable=0;whiteSpace=wrap;html=1;" vertex="1" parent="kMEmVYbH7B9asUcp1sha-5">
          <mxGeometry y="180" width="230" height="30" as="geometry" />
        </mxCell>
        <mxCell id="kMEmVYbH7B9asUcp1sha-78" value="B4. Report Logs and Alive Telemetry" style="text;strokeColor=#6c8ebf;fillColor=#dae8fc;align=left;verticalAlign=middle;spacingLeft=4;spacingRight=4;overflow=hidden;points=[[0,0.5],[1,0.5]];portConstraint=eastwest;rotatable=0;whiteSpace=wrap;html=1;" vertex="1" parent="kMEmVYbH7B9asUcp1sha-5">
          <mxGeometry y="210" width="230" height="30" as="geometry" />
        </mxCell>
        <mxCell id="kMEmVYbH7B9asUcp1sha-7" value="C1. Profile Configuration and Verififcation" style="text;strokeColor=#82b366;fillColor=#d5e8d4;align=left;verticalAlign=middle;spacingLeft=4;spacingRight=4;overflow=hidden;points=[[0,0.5],[1,0.5]];portConstraint=eastwest;rotatable=0;whiteSpace=wrap;html=1;" vertex="1" parent="kMEmVYbH7B9asUcp1sha-5">
          <mxGeometry y="240" width="230" height="30" as="geometry" />
        </mxCell>
        <mxCell id="kMEmVYbH7B9asUcp1sha-51" value="C2.Update Status Registers" style="text;strokeColor=#82b366;fillColor=#d5e8d4;align=left;verticalAlign=middle;spacingLeft=4;spacingRight=4;overflow=hidden;points=[[0,0.5],[1,0.5]];portConstraint=eastwest;rotatable=0;whiteSpace=wrap;html=1;" vertex="1" parent="kMEmVYbH7B9asUcp1sha-5">
          <mxGeometry y="270" width="230" height="30" as="geometry" />
        </mxCell>
        <mxCell id="kMEmVYbH7B9asUcp1sha-92" value="C3. Profile Health Evaluator" style="text;strokeColor=#82b366;fillColor=#d5e8d4;align=left;verticalAlign=middle;spacingLeft=4;spacingRight=4;overflow=hidden;points=[[0,0.5],[1,0.5]];portConstraint=eastwest;rotatable=0;whiteSpace=wrap;html=1;" vertex="1" parent="kMEmVYbH7B9asUcp1sha-5">
          <mxGeometry y="300" width="230" height="30" as="geometry" />
        </mxCell>
        <mxCell id="kMEmVYbH7B9asUcp1sha-93" value="C4. Output Stimulus" style="text;strokeColor=#82b366;fillColor=#d5e8d4;align=left;verticalAlign=middle;spacingLeft=4;spacingRight=4;overflow=hidden;points=[[0,0.5],[1,0.5]];portConstraint=eastwest;rotatable=0;whiteSpace=wrap;html=1;" vertex="1" parent="kMEmVYbH7B9asUcp1sha-5">
          <mxGeometry y="330" width="230" height="30" as="geometry" />
        </mxCell>
        <mxCell id="kMEmVYbH7B9asUcp1sha-94" value="C5. Report Logs and Alive Telemetry" style="text;strokeColor=#82b366;fillColor=#d5e8d4;align=left;verticalAlign=middle;spacingLeft=4;spacingRight=4;overflow=hidden;points=[[0,0.5],[1,0.5]];portConstraint=eastwest;rotatable=0;whiteSpace=wrap;html=1;" vertex="1" parent="kMEmVYbH7B9asUcp1sha-5">
          <mxGeometry y="360" width="230" height="30" as="geometry" />
        </mxCell>
        <mxCell id="kMEmVYbH7B9asUcp1sha-95" value="C6. Profile Teardown and Verification" style="text;strokeColor=#82b366;fillColor=#d5e8d4;align=left;verticalAlign=middle;spacingLeft=4;spacingRight=4;overflow=hidden;points=[[0,0.5],[1,0.5]];portConstraint=eastwest;rotatable=0;whiteSpace=wrap;html=1;" vertex="1" parent="kMEmVYbH7B9asUcp1sha-5">
          <mxGeometry y="390" width="230" height="30" as="geometry" />
        </mxCell>
        <mxCell id="kMEmVYbH7B9asUcp1sha-8" value="D1. Stasis (Spinlock await WWDG Trip)" style="text;strokeColor=#b85450;fillColor=#f8cecc;align=left;verticalAlign=middle;spacingLeft=4;spacingRight=4;overflow=hidden;points=[[0,0.5],[1,0.5]];portConstraint=eastwest;rotatable=0;whiteSpace=wrap;html=1;" vertex="1" parent="kMEmVYbH7B9asUcp1sha-5">
          <mxGeometry y="420" width="230" height="30" as="geometry" />
        </mxCell>
        <mxCell id="kMEmVYbH7B9asUcp1sha-12" value="B2. Poll&lt;br&gt;Environment" style="ellipse;whiteSpace=wrap;html=1;fillColor=#dae8fc;strokeColor=#6c8ebf;" vertex="1" parent="1">
          <mxGeometry x="210" y="280" width="120" height="80" as="geometry" />
        </mxCell>
        <mxCell id="kMEmVYbH7B9asUcp1sha-13" value="B3. Update Status Registers" style="ellipse;whiteSpace=wrap;html=1;fillColor=#dae8fc;strokeColor=#6c8ebf;" vertex="1" parent="1">
          <mxGeometry x="330" y="400" width="120" height="80" as="geometry" />
        </mxCell>
        <mxCell id="kMEmVYbH7B9asUcp1sha-14" value="B4. Report Logs&amp;nbsp;and Alive Telemetry" style="ellipse;whiteSpace=wrap;html=1;fillColor=#dae8fc;strokeColor=#6c8ebf;" vertex="1" parent="1">
          <mxGeometry x="460" y="295" width="130" height="80" as="geometry" />
        </mxCell>
        <mxCell id="kMEmVYbH7B9asUcp1sha-15" value="" style="curved=1;endArrow=classic;html=1;rounded=0;fillColor=#dae8fc;strokeColor=#6c8ebf;" edge="1" parent="1" source="kMEmVYbH7B9asUcp1sha-1" target="kMEmVYbH7B9asUcp1sha-12">
          <mxGeometry width="50" height="50" relative="1" as="geometry">
            <mxPoint x="40" y="450" as="sourcePoint" />
            <mxPoint x="90" y="400" as="targetPoint" />
            <Array as="points">
              <mxPoint x="310" y="240" />
            </Array>
          </mxGeometry>
        </mxCell>
        <mxCell id="kMEmVYbH7B9asUcp1sha-16" value="" style="curved=1;endArrow=classic;html=1;rounded=0;fillColor=#dae8fc;strokeColor=#6c8ebf;" edge="1" parent="1" source="kMEmVYbH7B9asUcp1sha-12" target="kMEmVYbH7B9asUcp1sha-13">
          <mxGeometry width="50" height="50" relative="1" as="geometry">
            <mxPoint x="348" y="240" as="sourcePoint" />
            <mxPoint x="299" y="292" as="targetPoint" />
            <Array as="points">
              <mxPoint x="280" y="400" />
            </Array>
          </mxGeometry>
        </mxCell>
        <mxCell id="kMEmVYbH7B9asUcp1sha-19" value="C1. Profile Configuration" style="ellipse;whiteSpace=wrap;html=1;fillColor=#d5e8d4;strokeColor=#82b366;" vertex="1" parent="1">
          <mxGeometry x="20" y="555" width="120" height="80" as="geometry" />
        </mxCell>
        <mxCell id="kMEmVYbH7B9asUcp1sha-21" value="A1. State and Peripheral Reset" style="ellipse;whiteSpace=wrap;html=1;fillColor=#ffe6cc;strokeColor=#d79b00;" vertex="1" parent="1">
          <mxGeometry x="320" y="-225" width="120" height="80" as="geometry" />
        </mxCell>
        <mxCell id="kMEmVYbH7B9asUcp1sha-26" value="A2. Output Stability Verification" style="ellipse;whiteSpace=wrap;html=1;fillColor=#ffe6cc;strokeColor=#d79b00;" vertex="1" parent="1">
          <mxGeometry x="210" y="-105" width="120" height="80" as="geometry" />
        </mxCell>
        <mxCell id="kMEmVYbH7B9asUcp1sha-27" value="" style="curved=1;endArrow=classic;html=1;rounded=0;fillColor=#ffe6cc;strokeColor=#d79b00;" edge="1" parent="1" source="kMEmVYbH7B9asUcp1sha-21" target="kMEmVYbH7B9asUcp1sha-26">
          <mxGeometry width="50" height="50" relative="1" as="geometry">
            <mxPoint x="170" y="-85" as="sourcePoint" />
            <mxPoint x="220" y="-135" as="targetPoint" />
            <Array as="points">
              <mxPoint x="280" y="-155" />
            </Array>
          </mxGeometry>
        </mxCell>
        <mxCell id="kMEmVYbH7B9asUcp1sha-29" value="A3. System State Load &amp;amp; Verification" style="ellipse;whiteSpace=wrap;html=1;fillColor=#ffe6cc;strokeColor=#d79b00;" vertex="1" parent="1">
          <mxGeometry x="400" y="-65" width="120" height="80" as="geometry" />
        </mxCell>
        <mxCell id="kMEmVYbH7B9asUcp1sha-30" value="" style="curved=1;endArrow=classic;html=1;rounded=0;fillColor=#ffe6cc;strokeColor=#d79b00;" edge="1" parent="1" source="kMEmVYbH7B9asUcp1sha-26" target="kMEmVYbH7B9asUcp1sha-29">
          <mxGeometry width="50" height="50" relative="1" as="geometry">
            <mxPoint x="335" y="-159" as="sourcePoint" />
            <mxPoint x="286" y="-115" as="targetPoint" />
            <Array as="points">
              <mxPoint x="320" y="-5" />
            </Array>
          </mxGeometry>
        </mxCell>
        <mxCell id="kMEmVYbH7B9asUcp1sha-32" value="" style="curved=1;endArrow=classic;html=1;rounded=0;fillColor=#ffe6cc;strokeColor=#d79b00;" edge="1" parent="1" source="kMEmVYbH7B9asUcp1sha-29" target="kMEmVYbH7B9asUcp1sha-21">
          <mxGeometry width="50" height="50" relative="1" as="geometry">
            <mxPoint x="560" y="55" as="sourcePoint" />
            <mxPoint x="610" y="5" as="targetPoint" />
            <Array as="points">
              <mxPoint x="520" y="-115" />
            </Array>
          </mxGeometry>
        </mxCell>
        <mxCell id="kMEmVYbH7B9asUcp1sha-33" value="" style="curved=1;endArrow=classic;html=1;rounded=0;" edge="1" parent="1" source="kMEmVYbH7B9asUcp1sha-29" target="kMEmVYbH7B9asUcp1sha-1">
          <mxGeometry width="50" height="50" relative="1" as="geometry">
            <mxPoint x="300" y="140" as="sourcePoint" />
            <mxPoint x="350" y="90" as="targetPoint" />
            <Array as="points">
              <mxPoint x="470" y="80" />
            </Array>
          </mxGeometry>
        </mxCell>
        <mxCell id="kMEmVYbH7B9asUcp1sha-36" value="" style="curved=1;endArrow=classic;html=1;rounded=0;elbow=horizontal;fillColor=#ffe6cc;strokeColor=#d79b00;" edge="1" parent="1" source="kMEmVYbH7B9asUcp1sha-26" target="kMEmVYbH7B9asUcp1sha-26">
          <mxGeometry width="50" height="50" relative="1" as="geometry">
            <mxPoint x="80" y="-55" as="sourcePoint" />
            <mxPoint x="130" y="-105" as="targetPoint" />
            <Array as="points">
              <mxPoint x="180" y="-25" />
            </Array>
          </mxGeometry>
        </mxCell>
        <mxCell id="kMEmVYbH7B9asUcp1sha-39" value="" style="ellipse;whiteSpace=wrap;html=1;fillColor=#f8cecc;strokeColor=#b85450;" vertex="1" parent="1">
          <mxGeometry x="650" y="-30" width="330" height="270" as="geometry" />
        </mxCell>
        <mxCell id="kMEmVYbH7B9asUcp1sha-40" value="D1. Stasis" style="ellipse;whiteSpace=wrap;html=1;fillColor=#f8cecc;strokeColor=#b85450;" vertex="1" parent="1">
          <mxGeometry x="740" y="65" width="120" height="80" as="geometry" />
        </mxCell>
        <mxCell id="kMEmVYbH7B9asUcp1sha-41" value="" style="curved=1;endArrow=classic;html=1;rounded=0;" edge="1" parent="1" source="kMEmVYbH7B9asUcp1sha-29" target="kMEmVYbH7B9asUcp1sha-40">
          <mxGeometry width="50" height="50" relative="1" as="geometry">
            <mxPoint x="640" y="160" as="sourcePoint" />
            <mxPoint x="690" y="110" as="targetPoint" />
            <Array as="points">
              <mxPoint x="690" y="-10" />
            </Array>
          </mxGeometry>
        </mxCell>
        <mxCell id="kMEmVYbH7B9asUcp1sha-42" value="" style="curved=1;endArrow=classic;html=1;rounded=0;fillColor=#f8cecc;strokeColor=#b85450;" edge="1" parent="1" source="kMEmVYbH7B9asUcp1sha-40" target="kMEmVYbH7B9asUcp1sha-40">
          <mxGeometry width="50" height="50" relative="1" as="geometry">
            <mxPoint x="970" y="320" as="sourcePoint" />
            <mxPoint x="1020" y="270" as="targetPoint" />
            <Array as="points">
              <mxPoint x="920" y="70" />
            </Array>
          </mxGeometry>
        </mxCell>
        <mxCell id="kMEmVYbH7B9asUcp1sha-43" value="" style="curved=1;endArrow=classic;html=1;rounded=0;" edge="1" parent="1" source="kMEmVYbH7B9asUcp1sha-40" target="kMEmVYbH7B9asUcp1sha-21">
          <mxGeometry width="50" height="50" relative="1" as="geometry">
            <mxPoint x="870" y="-90" as="sourcePoint" />
            <mxPoint x="920" y="-140" as="targetPoint" />
            <Array as="points">
              <mxPoint x="830" y="-280" />
            </Array>
          </mxGeometry>
        </mxCell>
        <mxCell id="kMEmVYbH7B9asUcp1sha-46" value="" style="curved=1;endArrow=classic;html=1;rounded=0;fillColor=#dae8fc;strokeColor=#6c8ebf;" edge="1" parent="1" source="kMEmVYbH7B9asUcp1sha-13" target="kMEmVYbH7B9asUcp1sha-14">
          <mxGeometry width="50" height="50" relative="1" as="geometry">
            <mxPoint x="290" y="360" as="sourcePoint" />
            <mxPoint x="347" y="431" as="targetPoint" />
            <Array as="points">
              <mxPoint x="520" y="430" />
            </Array>
          </mxGeometry>
        </mxCell>
        <mxCell id="kMEmVYbH7B9asUcp1sha-50" value="" style="curved=1;endArrow=classic;html=1;rounded=0;" edge="1" parent="1" source="kMEmVYbH7B9asUcp1sha-1" target="kMEmVYbH7B9asUcp1sha-19">
          <mxGeometry width="50" height="50" relative="1" as="geometry">
            <mxPoint x="100" y="270" as="sourcePoint" />
            <mxPoint x="150" y="220" as="targetPoint" />
            <Array as="points">
              <mxPoint x="10" y="220" />
            </Array>
          </mxGeometry>
        </mxCell>
        <mxCell id="kMEmVYbH7B9asUcp1sha-52" value="" style="curved=1;endArrow=classic;html=1;rounded=0;fillColor=#d5e8d4;strokeColor=#82b366;" edge="1" parent="1" source="kMEmVYbH7B9asUcp1sha-19" target="kMEmVYbH7B9asUcp1sha-83">
          <mxGeometry width="50" height="50" relative="1" as="geometry">
            <mxPoint x="-320" y="575" as="sourcePoint" />
            <mxPoint x="-270" y="525" as="targetPoint" />
            <Array as="points">
              <mxPoint x="-30" y="620" />
            </Array>
          </mxGeometry>
        </mxCell>
        <mxCell id="kMEmVYbH7B9asUcp1sha-57" value="C5. Report Logs and Alive Telemetry" style="ellipse;whiteSpace=wrap;html=1;fillColor=#d5e8d4;strokeColor=#82b366;" vertex="1" parent="1">
          <mxGeometry x="50" y="680" width="120" height="80" as="geometry" />
        </mxCell>
        <mxCell id="kMEmVYbH7B9asUcp1sha-64" value="C6. Profile Teardown Verification" style="ellipse;whiteSpace=wrap;html=1;fillColor=#d5e8d4;strokeColor=#82b366;" vertex="1" parent="1">
          <mxGeometry x="190" y="650" width="120" height="80" as="geometry" />
        </mxCell>
        <mxCell id="kMEmVYbH7B9asUcp1sha-65" value="" style="curved=1;endArrow=classic;html=1;rounded=0;fillColor=#dae8fc;strokeColor=#6c8ebf;" edge="1" parent="1" source="kMEmVYbH7B9asUcp1sha-14" target="kMEmVYbH7B9asUcp1sha-1">
          <mxGeometry width="50" height="50" relative="1" as="geometry">
            <mxPoint x="660" y="370" as="sourcePoint" />
            <mxPoint x="710" y="320" as="targetPoint" />
            <Array as="points">
              <mxPoint x="510" y="240" />
            </Array>
          </mxGeometry>
        </mxCell>
        <mxCell id="kMEmVYbH7B9asUcp1sha-66" value="C3. Profile Health Evaluator" style="ellipse;whiteSpace=wrap;html=1;fillColor=#d5e8d4;strokeColor=#82b366;" vertex="1" parent="1">
          <mxGeometry x="-180" y="790" width="120" height="80" as="geometry" />
        </mxCell>
        <mxCell id="kMEmVYbH7B9asUcp1sha-75" value="" style="curved=1;endArrow=classic;html=1;rounded=0;" edge="1" parent="1" source="kMEmVYbH7B9asUcp1sha-64" target="kMEmVYbH7B9asUcp1sha-1">
          <mxGeometry width="50" height="50" relative="1" as="geometry">
            <mxPoint x="770" y="420" as="sourcePoint" />
            <mxPoint x="820" y="370" as="targetPoint" />
            <Array as="points">
              <mxPoint x="616" y="716" />
              <mxPoint x="781" y="229" />
            </Array>
          </mxGeometry>
        </mxCell>
        <mxCell id="kMEmVYbH7B9asUcp1sha-83" value="C2. Update Status Registers" style="ellipse;whiteSpace=wrap;html=1;fillColor=#d5e8d4;strokeColor=#82b366;" vertex="1" parent="1">
          <mxGeometry x="-130" y="650" width="120" height="80" as="geometry" />
        </mxCell>
        <mxCell id="kMEmVYbH7B9asUcp1sha-84" value="" style="curved=1;endArrow=classic;html=1;rounded=0;fillColor=#d5e8d4;strokeColor=#82b366;" edge="1" parent="1" source="kMEmVYbH7B9asUcp1sha-66" target="kMEmVYbH7B9asUcp1sha-64">
          <mxGeometry width="50" height="50" relative="1" as="geometry">
            <mxPoint x="-570" y="890" as="sourcePoint" />
            <mxPoint x="-520" y="840" as="targetPoint" />
            <Array as="points">
              <mxPoint x="10" y="970" />
              <mxPoint x="260" y="860" />
            </Array>
          </mxGeometry>
        </mxCell>
        <mxCell id="kMEmVYbH7B9asUcp1sha-85" value="" style="curved=1;endArrow=classic;html=1;rounded=0;fillColor=#d5e8d4;strokeColor=#82b366;" edge="1" parent="1" source="kMEmVYbH7B9asUcp1sha-83" target="kMEmVYbH7B9asUcp1sha-66">
          <mxGeometry width="50" height="50" relative="1" as="geometry">
            <mxPoint x="-390" y="590" as="sourcePoint" />
            <mxPoint x="-340" y="540" as="targetPoint" />
            <Array as="points">
              <mxPoint x="-150" y="750" />
            </Array>
          </mxGeometry>
        </mxCell>
        <mxCell id="kMEmVYbH7B9asUcp1sha-87" value="" style="curved=1;endArrow=classic;html=1;rounded=0;fillColor=#d5e8d4;strokeColor=#82b366;" edge="1" parent="1" source="kMEmVYbH7B9asUcp1sha-66" target="kMEmVYbH7B9asUcp1sha-2">
          <mxGeometry width="50" height="50" relative="1" as="geometry">
            <mxPoint x="130" y="840" as="sourcePoint" />
            <mxPoint x="180" y="790" as="targetPoint" />
            <Array as="points">
              <mxPoint x="-30" y="870" />
            </Array>
          </mxGeometry>
        </mxCell>
        <mxCell id="kMEmVYbH7B9asUcp1sha-88" value="" style="curved=1;endArrow=classic;html=1;rounded=0;fillColor=#d5e8d4;strokeColor=#82b366;" edge="1" parent="1" source="kMEmVYbH7B9asUcp1sha-2" target="kMEmVYbH7B9asUcp1sha-57">
          <mxGeometry width="50" height="50" relative="1" as="geometry">
            <mxPoint x="30" y="800" as="sourcePoint" />
            <mxPoint x="80" y="750" as="targetPoint" />
            <Array as="points">
              <mxPoint x="120" y="790" />
            </Array>
          </mxGeometry>
        </mxCell>
        <mxCell id="kMEmVYbH7B9asUcp1sha-90" value="" style="curved=1;endArrow=classic;html=1;rounded=0;fillColor=#d5e8d4;strokeColor=#82b366;" edge="1" parent="1" source="kMEmVYbH7B9asUcp1sha-57" target="kMEmVYbH7B9asUcp1sha-83">
          <mxGeometry width="50" height="50" relative="1" as="geometry">
            <mxPoint x="-120" y="640" as="sourcePoint" />
            <mxPoint x="-70" y="590" as="targetPoint" />
            <Array as="points">
              <mxPoint x="40" y="650" />
            </Array>
          </mxGeometry>
        </mxCell>
        <mxCell id="kMEmVYbH7B9asUcp1sha-97" value="" style="curved=1;endArrow=classic;html=1;rounded=0;" edge="1" parent="1" source="kMEmVYbH7B9asUcp1sha-1" target="kMEmVYbH7B9asUcp1sha-21">
          <mxGeometry width="50" height="50" relative="1" as="geometry">
            <mxPoint x="140" y="110" as="sourcePoint" />
            <mxPoint x="190" y="60" as="targetPoint" />
            <Array as="points">
              <mxPoint x="34" y="113" />
              <mxPoint x="110" y="-320" />
            </Array>
          </mxGeometry>
        </mxCell>
      </root>
    </mxGraphModel>
  </diagram>
</mxfile>
